<svg width="259" height="252" viewBox="0 0 259 252" fill="none" xmlns="http://www.w3.org/2000/svg">
<path d="M177.938 57.9469H177.797C165.694 57.8733 155.902 47.9799 155.902 35.7883C155.902 34.9406 155.218 34.2542 154.376 34.2542C153.535 34.2542 152.85 34.9406 152.85 35.7883C152.85 47.9799 143.061 57.8713 130.958 57.9469H130.665V9.70759C130.665 8.85982 129.981 8.17139 129.139 8.17139H129.125C128.29 8.17139 127.613 8.85165 127.613 9.69329C127.613 36.344 106.133 57.9469 79.6377 57.9469C78.8022 57.9469 78.126 58.6271 78.126 59.4688V59.4974C78.126 60.288 78.7245 60.9355 79.4906 61.0111C79.5437 61.0172 79.5968 61.0193 79.652 61.0193H79.7419C106.188 61.0765 127.611 82.6528 127.615 109.265V109.271C127.615 110.108 128.292 110.789 129.125 110.789H129.16C129.993 110.789 130.669 110.108 130.669 109.271V61.0172H130.96C143.063 61.0908 152.855 70.9842 152.855 83.1778C152.855 84.0256 153.537 84.712 154.381 84.712C155.224 84.712 155.907 84.0256 155.907 83.1778C155.907 70.9862 165.696 61.0949 177.8 61.0172H177.945C178.788 61.0172 179.471 60.3308 179.471 59.4831C179.471 58.6333 178.788 57.9469 177.945 57.9469H177.938Z" fill="url(#paint0_linear_66_5756)"/>
<path d="M177.938 57.9469H177.797C165.694 57.8733 155.902 47.9799 155.902 35.7883C155.902 34.9406 155.218 34.2542 154.376 34.2542C153.535 34.2542 152.85 34.9406 152.85 35.7883C152.85 47.9799 143.061 57.8713 130.958 57.9469H130.665V9.70759C130.665 8.85982 129.981 8.17139 129.139 8.17139H129.125C128.29 8.17139 127.613 8.85165 127.613 9.69329C127.613 36.344 106.133 57.9469 79.6377 57.9469C78.8022 57.9469 78.126 58.6271 78.126 59.4688V59.4974C78.126 60.288 78.7245 60.9355 79.4906 61.0111C79.5437 61.0172 79.5968 61.0193 79.652 61.0193H79.7419C106.188 61.0765 127.611 82.6528 127.615 109.265V109.271C127.615 110.108 128.292 110.789 129.125 110.789H129.16C129.993 110.789 130.669 110.108 130.669 109.271V61.0172H130.96C143.063 61.0908 152.855 70.9842 152.855 83.1778C152.855 84.0256 153.537 84.712 154.381 84.712C155.224 84.712 155.907 84.0256 155.907 83.1778C155.907 70.9862 165.696 61.0949 177.8 61.0172H177.945C178.788 61.0172 179.471 60.3308 179.471 59.4831C179.471 58.6333 178.788 57.9469 177.945 57.9469H177.938Z" fill="url(#paint1_linear_66_5756)"/>
<path d="M43.0015 136.967C47.5305 134.822 50.039 130.692 50.039 125.242C50.039 115.992 44.1353 110.789 32.8895 110.789H8.78418V168.603H33.6985C45.7532 168.603 53.0318 162.574 53.0318 151.422C53.0318 144.567 49.228 139.282 43.0015 136.969V136.967ZM18.9779 120.451H31.1102C36.6912 120.451 39.684 123.013 39.684 127.47C39.684 131.681 36.5278 134.489 31.9192 134.489H18.9779V120.449V120.451ZM33.2123 158.94H18.9758V143.743H32.8078C38.875 143.743 42.5153 146.471 42.5153 151.094C42.5153 156.047 39.1161 158.94 33.2123 158.94Z" fill="url(#paint2_linear_66_5756)"/>
<path d="M67.3477 133.005V125.076H57.3174V168.605H67.3477V146.058C67.3477 138.046 72.04 134.99 77.5414 134.99C79.8845 134.99 81.5024 135.403 83.0406 135.981V124.913C82.0703 124.5 80.6934 124.169 79.2369 124.169C74.8693 124.169 70.0993 126.897 67.3477 133.007V133.005Z" fill="url(#paint3_linear_66_5756)"/>
<path d="M106.12 124.083C93.5836 124.083 84.3623 133.583 84.3623 147.21C84.3623 159.849 94.554 169.43 108.547 169.43C112.995 169.43 118.173 168.274 122.136 166.209V156.628C117.203 159.189 113.076 160.264 109.115 160.264C101.107 160.264 95.4467 155.637 94.2332 149.112H125.456L125.538 145.56C125.858 132.841 117.125 124.088 106.122 124.088L106.12 124.083ZM115.989 142.173H94.3926C95.6836 136.226 99.6488 133.086 106.12 133.086C111.46 133.086 115.585 136.97 115.989 141.758V142.171V142.173Z" fill="url(#paint4_linear_66_5756)"/>
<path d="M150.74 124.083C138.203 124.083 128.982 133.583 128.982 147.21H128.979C128.979 159.849 139.173 169.43 153.165 169.43C157.612 169.43 162.79 168.274 166.753 166.209V156.628C161.82 159.189 157.695 160.264 153.73 160.264C145.722 160.264 140.062 155.637 138.848 149.112H170.071L170.151 145.56C170.475 132.841 161.742 124.088 150.74 124.088V124.083ZM160.611 142.173H139.012C140.307 136.226 144.272 133.086 150.742 133.086C156.082 133.086 160.206 136.97 160.611 141.758V142.171V142.173Z" fill="url(#paint5_linear_66_5756)"/>
<path d="M206.111 132.343V125.074H172.219V133.581H194.057L172.219 161.332V168.597H206.679V160.09H184.435L206.111 132.341V132.343Z" fill="url(#paint6_linear_66_5756)"/>
<path d="M229.383 124.083C216.848 124.083 207.627 133.583 207.627 147.21H207.623C207.623 159.849 217.817 169.43 231.81 169.43C236.257 169.43 241.436 168.274 245.397 166.209V156.628C240.464 159.189 236.341 160.264 232.376 160.264C224.368 160.264 218.705 155.637 217.492 149.112H248.714L248.796 145.56C249.121 132.841 240.386 124.088 229.383 124.088V124.083ZM239.254 142.173H217.655C218.948 136.226 222.914 133.086 229.383 133.086C234.725 133.086 238.848 136.97 239.254 141.758V142.171V142.173Z" fill="url(#paint7_linear_66_5756)"/>
<path d="M243.582 115.481V110.721H244.733L246.575 113.781H245.844L247.674 110.721H248.877V115.481H247.609L247.635 111.716L248.328 111.573L246.628 114.488H245.764L243.975 111.469L244.81 111.626L244.837 115.483H243.582V115.481ZM240.43 115.481V111.036H241.646V115.481H240.43ZM239.215 111.845V110.721H242.914V111.845H239.215Z" fill="#FC3592"/>
<path d="M200.233 237.58C197.217 237.58 194.53 236.903 192.171 235.55C189.851 234.197 188.015 232.321 186.661 229.924C185.347 227.527 184.689 224.801 184.689 221.746C184.689 218.73 185.347 216.043 186.661 213.684C188.015 211.325 189.851 209.469 192.171 208.116C194.53 206.763 197.217 206.086 200.233 206.086C203.211 206.086 205.859 206.763 208.179 208.116C210.538 209.469 212.375 211.325 213.689 213.684C215.043 216.043 215.719 218.73 215.719 221.746C215.719 224.801 215.043 227.527 213.689 229.924C212.375 232.321 210.538 234.197 208.179 235.55C205.859 236.903 203.211 237.58 200.233 237.58ZM200.233 233.462C202.36 233.462 204.255 232.959 205.917 231.954C207.58 230.91 208.875 229.518 209.803 227.778C210.731 225.999 211.195 223.989 211.195 221.746C211.195 219.503 210.731 217.512 209.803 215.772C208.875 214.032 207.58 212.679 205.917 211.712C204.255 210.707 202.36 210.204 200.233 210.204C198.107 210.204 196.193 210.707 194.491 211.712C192.829 212.679 191.514 214.051 190.547 215.83C189.619 217.57 189.175 219.542 189.213 221.746C189.175 223.989 189.619 225.999 190.547 227.778C191.514 229.518 192.829 230.91 194.491 231.954C196.193 232.959 198.107 233.462 200.233 233.462Z" fill="#33475B"/>
<path d="M172.986 237V206.724H177.336V237H172.986ZM175.132 200.17C174.05 200.17 173.218 199.899 172.638 199.358C172.097 198.778 171.826 198.005 171.826 197.038C171.826 196.071 172.116 195.298 172.696 194.718C173.276 194.138 174.088 193.848 175.132 193.848C176.176 193.848 176.988 194.138 177.568 194.718C178.148 195.259 178.438 196.033 178.438 197.038C178.438 197.966 178.148 198.72 177.568 199.3C176.988 199.88 176.176 200.17 175.132 200.17Z" fill="#33475B"/>
<path d="M148.098 237.58C145.353 237.58 142.878 236.903 140.674 235.55C138.509 234.197 136.788 232.341 135.512 229.982C134.275 227.585 133.656 224.878 133.656 221.862C133.656 218.807 134.294 216.101 135.57 213.742C136.846 211.345 138.567 209.469 140.732 208.116C142.898 206.763 145.334 206.086 148.04 206.086C149.548 206.086 150.998 206.318 152.39 206.782C153.821 207.246 155.097 207.903 156.218 208.754C157.34 209.566 158.268 210.513 159.002 211.596C159.737 212.64 160.182 213.742 160.336 214.902L159.002 214.438V194.08H163.352V237H159.06L158.944 229.46L160.046 229.054C159.892 230.137 159.447 231.2 158.712 232.244C158.016 233.249 157.127 234.158 156.044 234.97C154.962 235.782 153.724 236.42 152.332 236.884C150.979 237.348 149.568 237.58 148.098 237.58ZM148.736 233.578C150.747 233.578 152.545 233.075 154.13 232.07C155.716 231.065 156.953 229.673 157.842 227.894C158.77 226.115 159.234 224.085 159.234 221.804C159.234 219.523 158.77 217.512 157.842 215.772C156.953 213.993 155.716 212.601 154.13 211.596C152.545 210.552 150.747 210.03 148.736 210.03C146.648 210.03 144.812 210.552 143.226 211.596C141.68 212.601 140.442 213.993 139.514 215.772C138.625 217.512 138.18 219.523 138.18 221.804C138.18 224.047 138.625 226.057 139.514 227.836C140.404 229.615 141.641 231.026 143.226 232.07C144.812 233.075 146.648 233.578 148.736 233.578Z" fill="#33475B"/>
<path d="M112.774 237.58C110.454 237.58 108.482 237.116 106.858 236.188C105.273 235.221 104.055 233.829 103.204 232.012C102.392 230.195 101.986 227.933 101.986 225.226V206.724H106.394V224.356C106.394 226.405 106.665 228.126 107.206 229.518C107.786 230.871 108.637 231.896 109.758 232.592C110.918 233.288 112.33 233.636 113.992 233.636C115.268 233.636 116.448 233.423 117.53 232.998C118.613 232.534 119.56 231.915 120.372 231.142C121.184 230.369 121.822 229.46 122.286 228.416C122.75 227.372 122.982 226.27 122.982 225.11V206.724H127.332V237H123.04L122.866 230.62L123.562 230.272C123.098 231.625 122.325 232.863 121.242 233.984C120.16 235.067 118.864 235.937 117.356 236.594C115.887 237.251 114.36 237.58 112.774 237.58Z" fill="#33475B"/>
<path d="M84.6975 237V198.778H89.0475V237H84.6975ZM77.8535 210.9V206.724H96.7035V210.9H77.8535Z" fill="#33475B"/>
<path d="M58.8056 237.58C56.7563 237.58 54.823 237.29 53.0056 236.71C51.1883 236.13 49.5256 235.26 48.0176 234.1C46.5096 232.94 45.1756 231.509 44.0156 229.808L47.1476 226.328C48.965 228.919 50.821 230.736 52.7156 231.78C54.649 232.824 56.8143 233.346 59.2116 233.346C60.9516 233.346 62.537 233.056 63.9676 232.476C65.3983 231.896 66.5196 231.084 67.3316 230.04C68.1436 228.996 68.5496 227.797 68.5496 226.444C68.5496 225.555 68.395 224.762 68.0856 224.066C67.815 223.37 67.3896 222.751 66.8096 222.21C66.2296 221.669 65.5143 221.185 64.6636 220.76C63.813 220.335 62.827 219.948 61.7056 219.6C60.623 219.252 59.405 218.904 58.0516 218.556C56.0796 218.092 54.3396 217.551 52.8316 216.932C51.3623 216.275 50.1056 215.482 49.0616 214.554C48.0563 213.626 47.283 212.563 46.7416 211.364C46.239 210.127 45.9876 208.677 45.9876 207.014C45.9876 205.429 46.3163 203.959 46.9736 202.606C47.6696 201.253 48.617 200.093 49.8156 199.126C51.0143 198.121 52.4256 197.347 54.0496 196.806C55.6736 196.265 57.4136 195.994 59.2696 195.994C61.3576 195.994 63.2136 196.284 64.8376 196.864C66.5003 197.405 67.9696 198.217 69.2456 199.3C70.5216 200.383 71.6236 201.678 72.5516 203.186L69.3616 206.318C68.5496 205.042 67.6216 203.94 66.5776 203.012C65.5723 202.084 64.451 201.388 63.2136 200.924C62.015 200.421 60.681 200.17 59.2116 200.17C57.5103 200.17 56.0023 200.46 54.6876 201.04C53.4116 201.62 52.4063 202.432 51.6716 203.476C50.937 204.481 50.5696 205.641 50.5696 206.956C50.5696 207.923 50.7436 208.793 51.0916 209.566C51.4396 210.301 51.981 210.958 52.7156 211.538C53.489 212.079 54.475 212.582 55.6736 213.046C56.911 213.471 58.3803 213.877 60.0816 214.264C62.0923 214.728 63.8903 215.289 65.4756 215.946C67.0996 216.603 68.4723 217.396 69.5936 218.324C70.7536 219.213 71.6236 220.257 72.2036 221.456C72.8223 222.655 73.1316 224.027 73.1316 225.574C73.1316 227.971 72.5323 230.079 71.3336 231.896C70.135 233.675 68.453 235.067 66.2876 236.072C64.161 237.077 61.667 237.58 58.8056 237.58Z" fill="#33475B"/>
<defs>
<linearGradient id="paint0_linear_66_5756" x1="84.7345" y1="15.3356" x2="198.081" y2="128.03" gradientUnits="userSpaceOnUse">
<stop stop-color="#FBDDD2"/>
<stop offset="0.54" stop-color="#FF4800"/>
</linearGradient>
<linearGradient id="paint1_linear_66_5756" x1="77.8992" y1="8.54523" x2="198.083" y2="128.028" gradientUnits="userSpaceOnUse">
<stop stop-color="#FBDDD2"/>
<stop offset="0.54" stop-color="#FF4800"/>
</linearGradient>
<linearGradient id="paint2_linear_66_5756" x1="-121.519" y1="98.4417" x2="246.136" y2="203.478" gradientUnits="userSpaceOnUse">
<stop stop-color="#FBDDD2"/>
<stop offset="0.46" stop-color="#FF4800"/>
<stop offset="1" stop-color="#FB31A7"/>
</linearGradient>
<linearGradient id="paint3_linear_66_5756" x1="-120.131" y1="94.1297" x2="246.105" y2="195.333" gradientUnits="userSpaceOnUse">
<stop stop-color="#FBDDD2"/>
<stop offset="0.59" stop-color="#FF4800"/>
<stop offset="1" stop-color="#FB31A7"/>
</linearGradient>
<linearGradient id="paint4_linear_66_5756" x1="-117.267" y1="84.4915" x2="249.325" y2="186.394" gradientUnits="userSpaceOnUse">
<stop stop-color="#FBDDD2"/>
<stop offset="0.66" stop-color="#FF4800"/>
<stop offset="1" stop-color="#FB31A7"/>
</linearGradient>
<linearGradient id="paint5_linear_66_5756" x1="-114.158" y1="72.6635" x2="253.484" y2="175.26" gradientUnits="userSpaceOnUse">
<stop stop-color="#FBDDD2"/>
<stop offset="0.66" stop-color="#FF4800"/>
<stop offset="1" stop-color="#FB31A7"/>
</linearGradient>
<linearGradient id="paint6_linear_66_5756" x1="-110.841" y1="62.0204" x2="255.758" y2="165.663" gradientUnits="userSpaceOnUse">
<stop stop-color="#FBDDD2"/>
<stop offset="0.66" stop-color="#FF4800"/>
<stop offset="1" stop-color="#FB31A7"/>
</linearGradient>
<linearGradient id="paint7_linear_66_5756" x1="-107.671" y1="52.3476" x2="259.274" y2="154.944" gradientUnits="userSpaceOnUse">
<stop offset="0.67" stop-color="#FF4800"/>
<stop offset="1" stop-color="#FB31A7"/>
</linearGradient>
</defs>
</svg>
